/* XPM */
static char *_63b1194bc514174e048e9c1cc431722GnoXYIpPMnN3mTJQ[] = {
/* columns rows colors chars-per-pixel */
"32 32 251 2 ",
"   c white",
".  c #FEFEFE",
"X  c gray95",
"o  c #EEEEEE",
"O  c #EFEFEF",
"+  c gray98",
"@  c gray96",
"#  c gray36",
"$  c #2D2D2D",
"%  c gray19",
"&  c #353535",
"*  c gray76",
"=  c gray83",
"-  c #676767",
";  c #646567",
":  c #67686C",
">  c #898A8E",
",  c #949598",
"<  c #95979A",
"1  c #4E4F52",
"2  c black",
"3  c #444549",
"4  c #67686B",
"5  c #646466",
"6  c #9C9D9E",
"7  c #F8F8F8",
"8  c gray70",
"9  c gray55",
"0  c #555558",
"q  c #524523",
"w  c #5D4403",
"e  c #DEC685",
"r  c #FFEEAC",
"t  c #B79F5E",
"y  c #563E00",
"u  c #553D00",
"i  c #4E3800",
"p  c #2D1F00",
"a  c #554D37",
"s  c gray65",
"d  c gainsboro",
"f  c gray91",
"g  c gray78",
"h  c #3B3B3C",
"j  c #65625A",
"k  c #FAF0D8",
"l  c #FED961",
"z  c #FDC300",
"x  c #FFC51E",
"c  c #FFC527",
"v  c #FEC515",
"b  c #FEC400",
"n  c #FEBD00",
"m  c #EEAE00",
"M  c #986E00",
"N  c #5A4101",
"B  c #010101",
"V  c #9A9A9A",
"C  c #2B2B2A",
"Z  c #C9C9C8",
"A  c #EFDCA6",
"S  c #FFC41D",
"D  c #FFE10E",
"F  c #FFF912",
"G  c #FFF8B2",
"H  c #FFF8E2",
"J  c #FFF7E3",
"K  c #FCF57B",
"L  c #F9F100",
"P  c #FECD00",
"I  c #F0B000",
"U  c #9B7100",
"Y  c #5D4300",
"T  c #030200",
"R  c #969695",
"E  c #FDFEFE",
"W  c #535455",
"Q  c #120D00",
"!  c #DDB23F",
"~  c #FFDA33",
"^  c #FFEB00",
"/  c #FFF765",
"(  c #FFFFB5",
")  c #FFFF60",
"_  c #FFF547",
"`  c #FFD34A",
"'  c #AD9228",
"]  c #494900",
"[  c #C8BB00",
"{  c #FEE500",
"}  c #E4AC00",
"|  c #B48300",
" . c #644900",
".. c #52472A",
"X. c #545556",
"o. c #DFDFDF",
"O. c #CECECE",
"+. c #838383",
"@. c #7D7E7F",
"#. c #89816D",
"$. c #EDB00D",
"%. c #FFD000",
"&. c yellow",
"*. c #FFFF90",
"=. c #FFFFF9",
"-. c #FFFF33",
";. c #FFF000",
":. c #FFC100",
">. c #8B6500",
",. c #B1B300",
"<. c #FFFB00",
"1. c #FFC500",
"2. c #D99E00",
"3. c #8E6700",
"4. c #342500",
"5. c #0D0E0F",
"6. c #D2D2D2",
"7. c #989898",
"8. c #A8A9AA",
"9. c #FFFFEB",
"0. c #FFC323",
"q. c #FFCF00",
"w. c #FFFE00",
"e. c #FFFF8E",
"r. c #FFFFF5",
"t. c #FFFF36",
"y. c #FFF100",
"u. c #FFC200",
"i. c #8D6700",
"p. c #020300",
"a. c #B3B300",
"s. c #FFFA00",
"d. c #FFC400",
"f. c #D79D00",
"g. c #362700",
"h. c #111113",
"j. c gray60",
"k. c #A7A8A9",
"l. c #FFFCE8",
"z. c #FFC322",
"x. c #A8A8A9",
"c. c #FFFDE9",
"v. c #FFFEF5",
"b. c #FFF736",
"n. c #FFE800",
"m. c #9D9D9D",
"M. c gray4",
"N. c #A4A5A6",
"B. c #FBF4E0",
"V. c #FEC221",
"C. c #FFFCF5",
"Z. c #FFCE36",
"A. c #FFBF00",
"S. c #FFBE00",
"D. c #E6E6E6",
"F. c gray75",
"G. c #6A6B6C",
"H. c #524A36",
"J. c #E5A909",
"K. c #FFFBF9",
"L. c #FFCB36",
"P. c #FFBC00",
"I. c #B2B300",
"U. c #D89E00",
"Y. c #8D6600",
"T. c #352500",
"R. c #0E0E10",
"E. c #555556",
"W. c #130C00",
"Q. c #DCA000",
"!. c #FFD100",
"~. c #FFFF44",
"^. c #F8F776",
"/. c #947B1A",
"(. c #755500",
"). c #775600",
"_. c #7D6C00",
"`. c #868700",
"'. c #DCC300",
"]. c #FBD400",
"[. c #CB9800",
"{. c #966D00",
"}. c #433000",
"|. c #69624F",
" X c #8E8F90",
".X c #E9E9E9",
"XX c #FDFDFD",
"oX c #150E00",
"OX c #DEA200",
"+X c #FFCD00",
"@X c #FFEC00",
"#X c #FFEE00",
"$X c #F6E300",
"%X c #6C5900",
"&X c #422F00",
"*X c #412F00",
"=X c #9A8700",
"-X c #EBBA00",
";X c #D39900",
":X c #956C00",
">X c #584000",
",X c #9A9A9B",
"<X c #676768",
"1X c #2B2513",
"2X c #CA9503",
"3X c #E7AA00",
"4X c #E5AA00",
"5X c #EDB000",
"6X c #F3B400",
"7X c #EEAF00",
"8X c #EDAE00",
"9X c #F0B100",
"0X c #F1B300",
"qX c #A27600",
"wX c #7D5A00",
"eX c #7E5B00",
"rX c #5A4409",
"tX c #191918",
"yX c gray64",
"uX c #E8E8E9",
"iX c #C7C6C3",
"pX c #3E361F",
"aX c #241B00",
"sX c #251B02",
"dX c #664A01",
"fX c #9C7100",
"gX c #9A7000",
"hX c #976E00",
"jX c #3D2D01",
"kX c #130E02",
"lX c #120C00",
"zX c #59564C",
"xX c gray85",
"cX c #F1F1F1",
"vX c #B2B2B4",
"bX c #A4A5A7",
"nX c #A6A7A9",
"mX c #615A48",
"MX c #281B00",
"NX c #2A1D00",
"BX c #2C2000",
"VX c #817D74",
"CX c #A5A5A6",
"ZX c #C5C6C6",
"AX c #ADADAE",
"SX c #646566",
"DX c #676769",
"FX c #666769",
"GX c #696A6C",
"HX c #D4D5D5",
"JX c white",
/* pixels */
"                                                                ",
"                                                                ",
"                                                                ",
"                                                                ",
"                            . X o O O O +                       ",
"                            @ # $ % % & *                       ",
"                      = - ; : > , < 1 2 3 4 5 6                 ",
"                  7 8 9 0 q w e r r t y u i p a s d             ",
"                f g h j k l z x c c v b n m M N B V             ",
"              . - C Z A S D F G H J K L P I U Y T R E .         ",
"                W Q ! ~ ^ / ( ) _ ` ' ] [ { } |  ...X.o.        ",
"            O.+.@.#.$.%.&.*.=.-.;.:.>.2 ,.<.1.2.3.4.5.6.        ",
"            7.2 8.9.0.q.w.e.r.t.y.u.i.p.a.s.d.f.>.g.h.6.        ",
"            j.B k.l.z.q.w.e.r.t.y.u.i.p.a.s.d.f.>.g.h.6.        ",
"            j.B k.l.z.q.w.e.r.t.y.u.i.p.a.s.d.f.>.g.h.6.        ",
"            j.B k.l.z.q.w.e.r.t.y.u.i.p.a.s.d.f.>.g.h.6.        ",
"            j.B k.l.z.q.w.e.r.t.y.u.i.p.a.s.d.f.>.g.h.6.        ",
"            j.2 x.c.z.q.w.e.v.b.n.:.i.p.a.s.d.f.>.g.h.6.        ",
"            m.M.N.B.V.q.w.e.C.Z.A.S.i.p.a.s.d.f.>.g.h.6.        ",
"            D.F.G.H.J.%.w.*.K.L.P.:.i.2 I.<.1.U.Y.T.R.6.        ",
"                E.W.Q.!.&.~.^./.(.)._.`.'.].[.{.}.|. X.X        ",
"              XXE.oXOX+X@X#X$X%X&X*X=Xy.-X;X:X>X2 ,X            ",
"              . <X1X2X3X4X5X6X7X8X8X9X0XqXwXeXrXtXyX            ",
"                uXiXpXaXsXdXfXgXgXgXgXhXjXkXlXzXxXcX            ",
"                  7 vXbXnXmXMXNXNXNXNXBXVX8.CXZX                ",
"                          AXSXDXDXDXFXGXHX                      ",
"                                                                ",
"                                                                ",
"                                                                ",
"                                                                ",
"                                                                ",
"                                                                "
};
