/* XPM */
static char *_1afb84ecbee48d89444976dc62e7f03QdWxONUwgBpIPyGg[] = {
/* columns rows colors chars-per-pixel */
"32 32 93 2 ",
"   c white",
".  c #D0A990",
"X  c #A15222",
"o  c #A25425",
"O  c #A35526",
"+  c #A45625",
"@  c #A85C29",
"#  c #AE6228",
"$  c #AE6128",
"%  c #A95D29",
"&  c #AF6328",
"*  c #AA5E29",
"=  c #A65C29",
"-  c #AD6228",
";  c #A45726",
":  c #AA5D29",
">  c #A45929",
",  c #8E4B25",
"<  c #A95F27",
"1  c #A55826",
"2  c #AD6028",
"3  c #AB5F29",
"4  c #A05527",
"5  c #894723",
"6  c #AD6128",
"7  c #AB5E29",
"8  c #A05526",
"9  c #AC5F27",
"0  c #9D5125",
"q  c #A65826",
"w  c #AC6027",
"e  c #AB5E28",
"r  c #A45626",
"t  c #A35425",
"y  c #A35525",
"u  c #9E5225",
"i  c #894823",
"p  c #AB5F28",
"a  c #9E5426",
"s  c #934E27",
"d  c #914C27",
"f  c #8E4A26",
"g  c #874623",
"h  c #9E5427",
"j  c #934F28",
"k  c #8F4B26",
"l  c #AE6328",
"z  c #9F5829",
"x  c #975328",
"c  c #9A5528",
"v  c #AC6128",
"b  c #965227",
"n  c #9A5427",
"m  c #B06428",
"M  c #B06328",
"N  c #B3672A",
"B  c #CD8738",
"V  c #D5903C",
"C  c #CE8738",
"Z  c #B2672A",
"A  c #C78237",
"S  c #C18139",
"D  c #C5853B",
"F  c #DD9B42",
"G  c #B66B2C",
"H  c #AA5D28",
"J  c #A95C28",
"K  c #A65A28",
"L  c #A25727",
"P  c #A35828",
"I  c #A9602B",
"U  c #AE6329",
"Y  c #A85C28",
"T  c #A55929",
"R  c #8E4A25",
"E  c #D1AA90",
"W  c #F7F7F8",
"Q  c #F1F2F3",
"!  c #F2F4F5",
"~  c #C9A38A",
"^  c #934F27",
"/  c #914C26",
"(  c #EAECED",
")  c #D9DDE0",
"_  c #DADFE2",
"`  c #BE9982",
"'  c #985328",
"]  c #9B5528",
"[  c #9B5628",
"{  c #E5E9EA",
"}  c #D0D7DA",
"|  c #D0D9DC",
" . c #B9967F",
/* pixels */
"        . X o o o o o o o o o o o o o o o o o o o o X .         ",
"        . X O + + + + + + + + + + + + + + + + + + O X .         ",
"        . X @ # # # # # # # # $ $ # # # # # # # # @ X .         ",
"        . X % & * % % % % % = - & * % % % % % = - % X .         ",
"        . X % # ; @ % % : > , < $ ; @ % % : > , < : X .         ",
"        . X % $ 1 2 3 * * 4 5 < $ 1 6 7 * * 8 5 < : X .         ",
"        . X % $ 1 9 + o o 0 5 < $ q 9 + o o 0 5 < : X .         ",
"        . X % $ 1 9 + o o 0 5 < $ q 9 + o o 0 5 < : X .         ",
"        . X % $ 1 9 + o o 0 5 < $ q 9 + o o 0 5 < : X .         ",
"        . X % $ 1 9 + o o 0 5 < $ q 9 + o o 0 5 < : X .         ",
"        . X % $ 1 9 + o o 0 5 < $ q 9 + o o 0 5 < : X .         ",
"        . X % $ 1 9 + o o 0 5 < $ q 9 + o o 0 5 < : X .         ",
"        . X % $ 1 9 + o o 0 5 < $ q w + o o 0 5 < : X .         ",
"        . X % $ q e r t y u i < $ q p r t y u 5 < : X .         ",
"        . X % # a s d d d f g < $ h j d d d k g < : X .         ",
"        . X % l z x x x x x c v # z x x b b b n v % X .         ",
"        . X % & & m m m m m m & & & M N B V V C Z % X .         ",
"        . X % & & & & & & & & & & & & Z A S D F G % X .         ",
"        . X % & H % % % % % = - # H % J K L P I U % X .         ",
"        . X % # ; Y : : : > , < $ ; @ : : * T R < : X .         ",
"        . X % $ 1 2 3 * * 8 5 < $ 1 6 3 * * 8 5 < : X .         ",
"        . X % $ 1 9 r o o 0 5 < $ q 9 r o o 0 5 < : X .         ",
"        . X % $ 1 9 + o o 0 5 < $ q 9 + o o 0 5 < : X .         ",
"        . X % $ 1 9 + o o 0 5 < $ q 9 + o o 0 5 < : X .         ",
"        . X % $ 1 9 + o o 0 5 < $ q 9 + o o 0 5 < : X .         ",
"        . X % $ 1 9 + o o 0 5 < $ q 9 + o o 0 5 < : X .         ",
"        . X % $ 1 9 + o o 0 5 < $ q 9 + o o 0 5 < : X .         ",
"        . X % $ 1 9 + o o 0 5 < $ q w + o o 0 5 < : X .         ",
"        E X % $ q e r o y u i < $ q p r o y u 5 < : X E         ",
"W Q Q ! ~ X % # a ^ / / / f g < $ a s / / / f g < : X ~ ! Q Q W ",
"( ) ) _ ` X % l z x ' ' ' x ] v # z x ' ' ' x [ - % X ` _ ) ) ( ",
"{ } } |  .X % & & m m m m m m & & & m m m m m m & % X  .| } } { "
};
