/* XPM */
static char *_093122a36d24246c2b7c8ddd19cfd3bSBIxMKYyfUysSExK[] = {
/* columns rows colors chars-per-pixel */
"32 32 123 2 ",
"   c #2D2D2D",
".  c #343434",
"X  c #3F3F3F",
"o  c #444444",
"O  c #4C4C4C",
"+  c gray34",
"@  c #5D5D5D",
"#  c #636363",
"$  c #6A6969",
"%  c gray50",
"&  c #77A2AC",
"*  c #7BA5AF",
"=  c #7DA6B0",
"-  c #7FA8B1",
";  c #838383",
":  c #8C8C8C",
">  c #929393",
",  c #83AAB4",
"<  c #88AEB7",
"1  c #8DB1BA",
"2  c #92B5BD",
"3  c #96B8BF",
"4  c gray65",
"5  c gray67",
"6  c #B6B6B6",
"7  c gray73",
"8  c #97B8C0",
"9  c #9ABAC1",
"0  c #A1BFC6",
"q  c #A3C0C7",
"w  c #A5C2C9",
"e  c #AAC5CB",
"r  c #AFC8CE",
"t  c #B0C9CF",
"y  c #B3CBD1",
"u  c #B9CFD4",
"i  c #BBD1D6",
"p  c #BFD4D9",
"a  c gray77",
"s  c #CBCBCB",
"d  c #C2D5DA",
"f  c #C6D9DD",
"g  c #CADBDF",
"h  c #D5D4D4",
"j  c #DADBDB",
"k  c #CDDDE1",
"l  c #D0DFE2",
"z  c #D3E1E4",
"x  c #D9E3E5",
"c  c #DBE6E9",
"v  c #DDE8EA",
"b  c #DDE8EB",
"n  c #DEE8EB",
"m  c #DFE9EC",
"M  c #DEE9EB",
"N  c #E2E2E2",
"B  c #E4E4E4",
"V  c #E5E6E6",
"C  c #E0EAEC",
"Z  c #E1EBED",
"A  c #E2EBED",
"S  c #E3ECEE",
"D  c #E4ECEE",
"F  c #E4EDEF",
"G  c #E5EDEF",
"H  c #E5EEEF",
"J  c #E2EBED",
"K  c #EAEAEA",
"L  c #ECECEB",
"P  c #ECECEC",
"I  c #E6EEF0",
"U  c #E7EEF0",
"Y  c #E7EFF0",
"T  c #E9F0F2",
"R  c #EBF1F3",
"E  c #EBF2F3",
"W  c #ECF2F3",
"Q  c #EDF2F4",
"!  c #EDF3F4",
"~  c #EEF3F5",
"^  c #EFF4F5",
"/  c gray94",
"(  c #F1F1F1",
")  c #F3F3F3",
"_  c #F0F5F6",
"`  c #F1F6F7",
"'  c #F2F6F7",
"]  c #F3F6F7",
"[  c #F4F4F4",
"{  c gray96",
"}  c #F6F6F6",
"|  c gray97",
" . c #F2F7F8",
".. c #F3F7F8",
"X. c #F4F7F8",
"o. c #F4F8F8",
"O. c #F5F8F9",
"+. c #F6F9F9",
"@. c #F6F9FA",
"#. c #F7F9FA",
"$. c #F7FAFA",
"%. c #F6F9FA",
"&. c #F8F8F8",
"*. c #FAFAF9",
"=. c #F8FAFA",
"-. c #F9FAFA",
";. c #F8FAFB",
":. c #F9FBFB",
">. c gray98",
",. c #FBFBFB",
"<. c #F9FBFC",
"1. c #FAFBFC",
"2. c #FAFCFC",
"3. c #FBFCFC",
"4. c #FBFCFD",
"5. c gray99",
"6. c #FCFDFD",
"7. c #FDFDFE",
"8. c #FDFEFE",
"9. c #FEFEFE",
"0. c #FEFEFF",
"q. c white",
"w. c white",
/* pixels */
"q.q.q.q.q.q.q.q.q.q.q.q.q.q.2.A d w 2 1 1 9 t z _ q.q.q.q.q.q.q.",
"q.q.q.q.q.q.q.q.q.q.q.q.$.l 9 , = < 2 9 9 1 , = 2 d X.q.q.q.q.q.",
"q.q.q.q.q.q.q.q.q.q.q.c 9 * 1 y c Q $.2.2.$.U f 9 * 3 v q.q.q.q.",
"q.q.q.q.q.q.q.q.q.2.p , 1 f ..q.q.q.q.q.q.q.q.q.$.g < < z q.q.q.",
"q.q.q.q.q.q.q.q.*.y * w x h L q.q.q.q.q.q.q.q.q.q.q.S 2 , c q.q.",
"q.q.q.q.q.q.q.q.u * y j $ . # K q.q.q.q.q.q.q.q.q.q.q.G 1 2 ^ q.",
"q.q.q.q.q.q.q.z = e *.;       6 q.q.q.q.q.q.q.q.q.q.q.q.z * u q.",
"q.q.q.q.q.q...2 1 ^ *.#       5 q.q.q.q.*.| q.q.q.q.q.q.2.q < T ",
"q.q.q.q.q.q.f * g q.q.7 @ . . s q.q.| 5 $ # > P q.q.q.q.q.z = f ",
"q.q.q.q.q.*.8 2 $.q.q.q.| 4 : | q.| % .       : q.q.q.q.q.^ < 0 ",
"q.q.q.q.q.c = i q.q.q.j j q.q.q.q.s .         # | q.q.q.q.2.9 1 ",
"q.q.^ i 9 < * v q.q.s o O s q.q.q./ 6 : O     ; q.q.q.q.q.q.0 , ",
"q.U 2 * 3 q 2 g q.q.>     + s | | / *.q.N : ; V q.q.q.q.q.q.0 , ",
"..9 , k *.q.Q A q.q.>       X @ # + # a q.q.q.q.q.q.q.q.q.1.8 1 ",
"d * f q.q.q.q.q.q.q.7 .               # *.q.q.q.q.q.q.q.q._ < 0 ",
"2 1 X.q.q.*.q.q.q.q./ #               ; q.q.$.1.q.q.q.q.q.c = d ",
", 0 q.G q 2 l q.q.q.q.h @         X ; V c w 2 9 z q.q.q.q.i , A ",
"1 2 z 1 , = 9 q.q.q.q.q.K 5 ; ; 4 j *.p - 2 y t e $.q.q.$.2 9 *.",
"d = * < z 9 9 2.q.q.q.q.q.q.q.q.q.q.l = y $.q.q.*.q.q.q.x * f q.",
"2.z d G q.e < _ q.q.q.q.q.q.q.q.q.$.2 9 $.q.q.q.q.q.q.q.w < T q.",
"q.q.q.q.q.g * x q.q.q.q.q.q.q.q.q.m - k q.q.S f G q.q.A , y q.q.",
"q.q.q.q.q.T , e q.q.q.q.q.q.q.q.q.z - A q.d , , 9 ..q.r , S q.q.",
"q.q.q.q.q.q.e , U q.q.q.q.q.q.q.q.v - d i = y T G 2.U , e q.q.q.",
"q.q.q.q.q.q.v - e q.q.q.q.q.q.q.q.*.q * - y 2.q.q.q.i = v q.q.q.",
"q.q.q.q.q.q.q.y * k q.q.q.q.q.q.q.q._ z v q.q.q.q.q.9 2 $.q.q.q.",
"q.q.q.q.q.q.q._ 2 , x q.q.q.q.q.q.q.q.q.q.q.q.q.q.$.2 q q.q.q.q.",
"q.q.q.q.q.q.q.q.G 1 < z q.q.q.q.q.q.q.q.q.q.q.q.q.2.9 2 _ q.q.q.",
"q.q.q.q.q.q.q.q.q.A 2 = i ..q.q.q.q.q.q.q.q.q.q.q.q.g * 9 i f Q ",
"q.q.q.q.q.q.q.q.q.q.W w * 2 k $.q.q.q.q.q.q.q.q.q.q.q.f 1 & & r ",
"q.q.q.q.q.q.q.q.q.q.q.1.g 1 * 2 i c Q $.1.2.1.$.^ G z i 2 & , g ",
"q.q.q.q.q.q.q.q.q.q.q.q.q._ f 9 , = < 2 9 9 9 2 < , * , 2 y A q.",
"q.q.q.q.q.q.q.q.q.q.q.q.q.q.q.$.v d w 2 1 1 1 2 w y k A $.q.q.q."
};
