/* XPM */
static char *ff1d0390cf8e4c6bb99f22fc84d0a6bedADo48iVT5MtVML5[] = {
/* columns rows colors chars-per-pixel */
"32 32 141 2 ",
"   c #3E343D",
".  c #3B3542",
"X  c #3E3944",
"o  c #3F3D48",
"O  c #423B46",
"+  c #433D4B",
"@  c #493E4C",
"#  c #483F50",
"$  c #414046",
"%  c #46424B",
"&  c #4A414C",
"*  c #4E4849",
"=  c #50444E",
"-  c #524B4E",
";  c #464251",
":  c #4C4452",
">  c #4E4B54",
",  c #4F4B59",
"<  c #524652",
"1  c #524C55",
"2  c #584F54",
"3  c #544E5A",
"4  c #535354",
"5  c #5A5156",
"6  c #555857",
"7  c #55525B",
"8  c #5A535C",
"9  c #565B5A",
"0  c #5C5A5C",
"q  c #625C5D",
"w  c #66625F",
"e  c #524D63",
"r  c #565462",
"t  c #5B5562",
"y  c #575F61",
"u  c #5D5B63",
"i  c #5D546B",
"p  c #5E5A6C",
"a  c #625663",
"s  c #625D63",
"d  c #685E66",
"f  c #645D6A",
"g  c #635C73",
"h  c #5E6064",
"j  c #656264",
"k  c #696466",
"l  c #696966",
"z  c #65626B",
"x  c #6A656C",
"c  c #6D6A6C",
"v  c #72646C",
"b  c #716C6D",
"n  c #6F706C",
"m  c #73736E",
"M  c #7B756F",
"N  c #666372",
"B  c #6B6573",
"V  c #6D6A73",
"C  c #6B6778",
"Z  c #6E6B79",
"A  c #726C73",
"S  c #726D7A",
"D  c #747472",
"F  c #797574",
"G  c #767973",
"H  c #7B7A75",
"J  c #75737C",
"K  c #7A757C",
"L  c #77787D",
"P  c #7C7B7B",
"I  c #817976",
"U  c #807D7E",
"Y  c #817D7C",
"T  c #81807E",
"R  c #82817F",
"E  c #85807D",
"W  c #83817E",
"Q  c #777580",
"!  c #797381",
"~  c #7D7783",
"^  c #7A7684",
"/  c #7B7682",
"(  c #797880",
")  c #7D7C81",
"_  c #7E7E80",
"`  c #7F7D82",
"'  c #7C7984",
"]  c #7F7985",
"[  c #7D7A85",
"{  c #7A7D84",
"}  c #7D7C84",
"|  c #7F7E86",
" . c #7D7B82",
".. c #7F7D88",
"X. c #7E7F8C",
"o. c #817C80",
"O. c #837E82",
"+. c #817B87",
"@. c #827A87",
"#. c #807F85",
"$. c #807F84",
"%. c #837E84",
"&. c #837D87",
"*. c #817E82",
"=. c #807D88",
"-. c #827F88",
";. c #807E8C",
":. c #817D8C",
">. c #867D90",
",. c #808183",
"<. c #828085",
"1. c #808186",
"2. c #838186",
"3. c #868185",
"4. c #848283",
"5. c #888383",
"6. c #808088",
"7. c #818088",
"8. c #83808B",
"9. c #848389",
"0. c #84818A",
"q. c #83868B",
"w. c #84818C",
"e. c #84838C",
"r. c #89838F",
"t. c #88858E",
"y. c #8C878D",
"u. c #89838F",
"i. c #8A898F",
"p. c #848290",
"a. c #848692",
"s. c #848290",
"d. c #888590",
"f. c #8C8692",
"g. c #888694",
"h. c #898592",
"j. c #898995",
"k. c #8D8A95",
"l. c #8E8B96",
"z. c #8B8992",
"x. c #8F8D98",
/* pixels */
"@.s 0.0.| w.S C j.&.P y.S N k._ 7.f 6.q.{ ..! B a.1._ 1.^ N x.P ",
"P 0 T l H P j b _ n G F j V U n P 0 P c H P j c 4.n m D c x P m ",
"c - T D P c 1 c P m H F 0 x U P b * U H P F - j P D H F q s P P ",
": O z > o t + + z 3 % 7 % ; u > 3 X s 3 . f + + f 8 % 8 % : u : ",
"&.K -.B z d.@.S J z f r.-.J S 3 t.J 7.Z u k.' J S B f f.@.~ S : ",
"F D F j D F A F I j c P m P c s H n F c c P c F R j j *.c P c s ",
"H P U 0 c 3.F H F q x _ F P s 7 P P P s c *.F F I q s 1.F H j 1 ",
"s % : X + C > $ 8 @ + f > O O ; x & & + + B 3 + 5 & + z : $ % + ",
"&.N g >.J &.N g ;.| K ' C p g.J K C g p.( K B g p.| J ' S r g.K ",
"H q c ) F H l V P c m H V x P m I j j P H G c x P m m H V z U m ",
"M q D *.D H w x T H H H s c U M I w c U F Y l j T H H H j l Y M ",
"v & 3 Z u x O t V V u z : 3 A s v & 1 K s z % 7 V V 8 x > > A d ",
"a 8 f 3 ; J t r V t ; C t t x a a 8 s r + S t 7 B u ; C r t B a ",
"Y A *.V A 1.P 4.5.j c i.P T P U 3.D P A V w.P 4.5.c x i.P T U U ",
"G m P q A P P m F s V 1.D G D F P m H q x &.P D I s z q.D G D F ",
"y 6 4   : f z 4 0 O + C h 4 9 4 9 0 4 X ; N u 6 8 + X C y 6 0 > ",
"! t J { J J C f 8.J D _ N p w.J Q r K ) J J Z p X.( D K S t d.J ",
"U q T c P P x A P m G H j V P l U q U b P U x c _ m D H A x *.m ",
"b * R D U D 1 k 4.H E F 0 x 4.P A * I P U F - j _ H H H s s *.T ",
"1 . z > o s + + x 3 + 1 O + u 3 7 . s 7 X f O + z u + 8 + % f 1 ",
"&.A -.z u d.^ S S f f d.@.J C 3 w.S ( C t d.J S A x u d.~ K A ; ",
"G D P x D P D F I k A P m P c s P D L c V P D P R c j *.m Y A s ",
"D P P 0 x o.F F H q x _ F P j 6 H P P 0 k *.F F I q u _ D H k 1 ",
"x > : + + B 3 & 5 + + z 4 $ O ; x 1 : + + B 8 & 2 & + N 1 % : . ",
"( N p :.K ~ f i X.( D ' C i p.L ! C p ;.J ) B i 8.J J ' Z e j.J ",
"H k V P F P b x P m G H c c P m Y l x *.D H b x P m m U x x *.m ",
"I q b 3.H G j c T H H H j c Y F H w c 4.m Y l j T G H H j l R m ",
"v = 7 J u V & 8 J A u B 1 3 A x A & : ~ s V % 8 J V s x 3 1 J x ",
"a < 7 r ; Z , 7 z 8 ; z 3 8 x r t 3 8 t + S r 3 z u O C 3 t f t ",
"O.F 4.V V z.P P 5.x V i.P 4.U *.4.F Y F V t.P 4.5.b x z.P 4.U *.",
"P b G s c *.F G H 0 x 1.D G D F F D H j z _ G m H s x &.H m D F ",
"y 0 4   # Z u 9 5 O + N h 9 0 > u u 4 X O C h 9 2 & . C u 0 9 > "
};
